<svg width="32" height="32" viewBox="0 0 32 32" fill="none" xmlns="http://www.w3.org/2000/svg">
  <!-- 外圆环 - 代表企业生态 -->
  <circle cx="16" cy="16" r="14" stroke="url(#gradient1)" stroke-width="2" fill="none"/>
  
  <!-- 内部六边形 - 代表知识结构 -->
  <polygon points="16,4 26,10 26,22 16,28 6,22 6,10" stroke="url(#gradient2)" stroke-width="1.5" fill="none"/>
  
  <!-- 中心连接点 - 代表AI核心 -->
  <circle cx="16" cy="16" r="4" fill="url(#gradient3)"/>
  
  <!-- 知识连接线 -->
  <line x1="16" y1="12" x2="16" y2="4" stroke="#1570EF" stroke-width="1.5"/>
  <line x1="16" y1="20" x2="16" y2="28" stroke="#1570EF" stroke-width="1.5"/>
  <line x1="12.5" y1="14" x2="6" y2="10" stroke="#53B1FD" stroke-width="1.5"/>
  <line x1="19.5" y1="14" x2="26" y2="10" stroke="#53B1FD" stroke-width="1.5"/>
  <line x1="12.5" y1="18" x2="6" y2="22" stroke="#53B1FD" stroke-width="1.5"/>
  <line x1="19.5" y1="18" x2="26" y2="22" stroke="#53B1FD" stroke-width="1.5"/>
  
  <!-- 节点 -->
  <circle cx="16" cy="4" r="2" fill="#B2DDFF"/>
  <circle cx="16" cy="28" r="2" fill="#B2DDFF"/>
  <circle cx="6" cy="10" r="2" fill="#53B1FD"/>
  <circle cx="26" cy="10" r="2" fill="#53B1FD"/>
  <circle cx="6" cy="22" r="2" fill="#53B1FD"/>
  <circle cx="26" cy="22" r="2" fill="#53B1FD"/>
  
  <!-- 渐变定义 -->
  <defs>
    <linearGradient id="gradient1" x1="0%" y1="0%" x2="100%" y2="100%">
      <stop offset="0%" style="stop-color:#1570EF"/>
      <stop offset="100%" style="stop-color:#53B1FD"/>
    </linearGradient>
    <linearGradient id="gradient2" x1="0%" y1="0%" x2="100%" y2="100%">
      <stop offset="0%" style="stop-color:#53B1FD"/>
      <stop offset="100%" style="stop-color:#B2DDFF"/>
    </linearGradient>
    <radialGradient id="gradient3" cx="50%" cy="50%" r="50%">
      <stop offset="0%" style="stop-color:#1570EF"/>
      <stop offset="100%" style="stop-color:#0A4DA6"/>
    </radialGradient>
  </defs>
</svg>